<svg width="428" height="272" viewBox="0 0 428 272" fill="none" xmlns="http://www.w3.org/2000/svg">

<g filter="url(#filter0_f_3_77)">
<path d="M15 168L27 256" stroke="#638734" stroke-width="5"/>
</g>
<g filter="url(#filter1_f_3_77)">
<path d="M29 257H134" stroke="#638734" stroke-width="5"/>
</g>
<g filter="url(#filter2_f_3_77)">
<path d="M141 183L141 257" stroke="#638734" stroke-width="5"/>
</g>
<g filter="url(#filter3_f_3_77)">
<path d="M141 183L232 180" stroke="#638734" stroke-width="5"/>
</g>
<g filter="url(#filter4_f_3_77)">
<path d="M228 148L243 180" stroke="#638734" stroke-width="5"/>
</g>
<g filter="url(#filter5_f_3_77)">
<path d="M252 70L226 120" stroke="#638734" stroke-width="5"/>
</g>
<g filter="url(#filter6_f_3_77)">
<path d="M161 13L252 51" stroke="#638734" stroke-width="5"/>
</g>
<g filter="url(#filter7_f_3_77)">
<path d="M157 14L84 26" stroke="#638734" stroke-width="4"/>
</g>
<g filter="url(#filter8_f_3_77)">
<path d="M68 42L60 114" stroke="#638734" stroke-width="5"/>
</g>
<g filter="url(#filter9_f_3_77)">
<path d="M60 114L15 165" stroke="#638734" stroke-width="5"/>
</g>
<g filter="url(#filter10_b_3_77)">
<path d="M34.3817 91.8757V60.1818H183.707V91.8757H128.043V242H90.0458V91.8757H34.3817Z" fill="white"/>
</g>
<g filter="url(#filter11_f_3_77)">
<circle cx="259.5" cy="58.5" r="16.5" fill="#B2A7F6"/>
</g>
<g filter="url(#filter12_f_3_77)">
<circle cx="161.5" cy="13.5" r="12.5" fill="#B2A7F6"/>
</g>
<g filter="url(#filter13_f_3_77)">
<ellipse cx="68" cy="32.5" rx="19" ry="19.5" fill="#B2A7F6"/>
</g>
<g filter="url(#filter14_f_3_77)">
<circle cx="141.5" cy="183.5" r="7.5" fill="#B2A7F6"/>
</g>
<g filter="url(#filter15_f_3_77)">
<ellipse cx="141" cy="256.5" rx="14" ry="14.5" fill="#B2A7F6"/>
</g>
<g filter="url(#filter16_f_3_77)">
<circle cx="60.5" cy="113.5" r="7.5" fill="#B2A7F6"/>
</g>
<g filter="url(#filter17_f_3_77)">
<circle cx="224" cy="133" r="20" fill="#B2A7F6"/>
</g>
<g filter="url(#filter18_f_3_77)">
<ellipse cx="243" cy="179.5" rx="11" ry="11.5" fill="#B2A7F7"/>
</g>
<g filter="url(#filter19_f_3_77)">
<circle cx="27.5" cy="257.5" r="7.5" fill="#B2A7F6"/>
</g>
<g filter="url(#filter20_f_3_77)">
<ellipse cx="15" cy="165.5" rx="14" ry="14.5" fill="#B2A7F6"/>
</g>
<g filter="url(#filter21_b_3_77)">
<path d="M167.144 246.133C163.315 246.133 159.904 245.469 156.909 244.141C153.914 242.786 151.545 240.794 149.8 238.164C148.081 235.508 147.222 232.201 147.222 228.242C147.222 224.909 147.834 222.109 149.058 219.844C150.282 217.578 151.948 215.755 154.058 214.375C156.167 212.995 158.563 211.953 161.245 211.25C163.953 210.547 166.792 210.052 169.761 209.766C173.25 209.401 176.063 209.062 178.198 208.75C180.334 208.411 181.883 207.917 182.847 207.266C183.81 206.615 184.292 205.651 184.292 204.375V204.141C184.292 201.667 183.511 199.753 181.948 198.398C180.412 197.044 178.224 196.367 175.386 196.367C172.391 196.367 170.008 197.031 168.237 198.359C166.466 199.661 165.295 201.302 164.722 203.281L149.331 202.031C150.112 198.385 151.649 195.234 153.94 192.578C156.232 189.896 159.188 187.839 162.808 186.406C166.453 184.948 170.672 184.219 175.464 184.219C178.797 184.219 181.987 184.609 185.034 185.391C188.107 186.172 190.828 187.383 193.198 189.023C195.594 190.664 197.482 192.773 198.862 195.352C200.243 197.904 200.933 200.964 200.933 204.531V245H185.151V236.68H184.683C183.719 238.555 182.43 240.208 180.815 241.641C179.201 243.047 177.261 244.154 174.995 244.961C172.729 245.742 170.112 246.133 167.144 246.133ZM171.909 234.648C174.357 234.648 176.519 234.167 178.394 233.203C180.269 232.214 181.74 230.885 182.808 229.219C183.875 227.552 184.409 225.664 184.409 223.555V217.188C183.888 217.526 183.172 217.839 182.261 218.125C181.375 218.385 180.373 218.633 179.253 218.867C178.133 219.076 177.013 219.271 175.894 219.453C174.774 219.609 173.758 219.753 172.847 219.883C170.894 220.169 169.188 220.625 167.729 221.25C166.271 221.875 165.138 222.721 164.331 223.789C163.524 224.831 163.12 226.133 163.12 227.695C163.12 229.961 163.94 231.693 165.581 232.891C167.248 234.062 169.357 234.648 171.909 234.648ZM240.952 246.172C234.806 246.172 229.52 244.87 225.093 242.266C220.692 239.635 217.306 235.99 214.937 231.328C212.593 226.667 211.421 221.302 211.421 215.234C211.421 209.089 212.606 203.698 214.976 199.062C217.371 194.401 220.77 190.768 225.171 188.164C229.572 185.534 234.806 184.219 240.874 184.219C246.108 184.219 250.692 185.169 254.624 187.07C258.556 188.971 261.668 191.641 263.96 195.078C266.252 198.516 267.515 202.552 267.749 207.188H252.046C251.603 204.193 250.431 201.784 248.53 199.961C246.655 198.112 244.194 197.187 241.147 197.187C238.569 197.187 236.317 197.891 234.39 199.297C232.489 200.677 231.004 202.695 229.937 205.352C228.869 208.008 228.335 211.224 228.335 215C228.335 218.828 228.856 222.083 229.897 224.766C230.965 227.448 232.463 229.492 234.39 230.898C236.317 232.305 238.569 233.008 241.147 233.008C243.049 233.008 244.754 232.617 246.265 231.836C247.801 231.055 249.064 229.922 250.054 228.437C251.069 226.927 251.733 225.117 252.046 223.008H267.749C267.489 227.591 266.239 231.628 263.999 235.117C261.785 238.581 258.726 241.289 254.819 243.242C250.913 245.195 246.291 246.172 240.952 246.172ZM267.505 178.945V165H333.208V178.945H308.716V245H291.997V178.945H267.505ZM343.716 245V185H360.356V245H343.716ZM352.075 177.266C349.601 177.266 347.479 176.445 345.708 174.805C343.963 173.138 343.091 171.146 343.091 168.828C343.091 166.536 343.963 164.57 345.708 162.93C347.479 161.263 349.601 160.43 352.075 160.43C354.549 160.43 356.659 161.263 358.403 162.93C360.174 164.57 361.06 166.536 361.06 168.828C361.06 171.146 360.174 173.138 358.403 174.805C356.659 176.445 354.549 177.266 352.075 177.266ZM400.796 246.172C394.65 246.172 389.364 244.87 384.937 242.266C380.535 239.635 377.15 235.99 374.78 231.328C372.437 226.667 371.265 221.302 371.265 215.234C371.265 209.089 372.45 203.698 374.819 199.062C377.215 194.401 380.614 190.768 385.015 188.164C389.416 185.534 394.65 184.219 400.718 184.219C405.952 184.219 410.535 185.169 414.468 187.07C418.4 188.971 421.512 191.641 423.804 195.078C426.095 198.516 427.358 202.552 427.593 207.188H411.89C411.447 204.193 410.275 201.784 408.374 199.961C406.499 198.112 404.038 197.187 400.991 197.187C398.413 197.187 396.16 197.891 394.233 199.297C392.332 200.677 390.848 202.695 389.78 205.352C388.713 208.008 388.179 211.224 388.179 215C388.179 218.828 388.7 222.083 389.741 224.766C390.809 227.448 392.306 229.492 394.233 230.898C396.16 232.305 398.413 233.008 400.991 233.008C402.892 233.008 404.598 232.617 406.108 231.836C407.645 231.055 408.908 229.922 409.897 228.437C410.913 226.927 411.577 225.117 411.89 223.008H427.593C427.332 227.591 426.082 231.628 423.843 235.117C421.629 238.581 418.569 241.289 414.663 243.242C410.757 245.195 406.134 246.172 400.796 246.172Z" fill="white"/>
</g>
<defs>
<filter id="filter0_f_3_77" x="11.5229" y="166.662" width="18.9542" height="90.6756" filterUnits="userSpaceOnUse" color-interpolation-filters="sRGB">
<feFlood flood-opacity="0" result="BackgroundImageFix"/>
<feBlend mode="normal" in="SourceGraphic" in2="BackgroundImageFix" result="shape"/>
<feGaussianBlur stdDeviation="0.5" result="effect1_foregroundBlur_3_77"/>
</filter>
<filter id="filter1_f_3_77" x="28" y="253.5" width="107" height="7" filterUnits="userSpaceOnUse" color-interpolation-filters="sRGB">
<feFlood flood-opacity="0" result="BackgroundImageFix"/>
<feBlend mode="normal" in="SourceGraphic" in2="BackgroundImageFix" result="shape"/>
<feGaussianBlur stdDeviation="0.5" result="effect1_foregroundBlur_3_77"/>
</filter>
<filter id="filter2_f_3_77" x="137.5" y="182" width="7" height="76" filterUnits="userSpaceOnUse" color-interpolation-filters="sRGB">
<feFlood flood-opacity="0" result="BackgroundImageFix"/>
<feBlend mode="normal" in="SourceGraphic" in2="BackgroundImageFix" result="shape"/>
<feGaussianBlur stdDeviation="0.5" result="effect1_foregroundBlur_3_77"/>
</filter>
<filter id="filter3_f_3_77" x="139.918" y="176.501" width="93.1647" height="9.99728" filterUnits="userSpaceOnUse" color-interpolation-filters="sRGB">
<feFlood flood-opacity="0" result="BackgroundImageFix"/>
<feBlend mode="normal" in="SourceGraphic" in2="BackgroundImageFix" result="shape"/>
<feGaussianBlur stdDeviation="0.5" result="effect1_foregroundBlur_3_77"/>
</filter>
<filter id="filter4_f_3_77" x="224.736" y="145.939" width="21.5273" height="36.1222" filterUnits="userSpaceOnUse" color-interpolation-filters="sRGB">
<feFlood flood-opacity="0" result="BackgroundImageFix"/>
<feBlend mode="normal" in="SourceGraphic" in2="BackgroundImageFix" result="shape"/>
<feGaussianBlur stdDeviation="0.5" result="effect1_foregroundBlur_3_77"/>
</filter>
<filter id="filter5_f_3_77" x="222.782" y="67.8466" width="32.4361" height="54.3068" filterUnits="userSpaceOnUse" color-interpolation-filters="sRGB">
<feFlood flood-opacity="0" result="BackgroundImageFix"/>
<feBlend mode="normal" in="SourceGraphic" in2="BackgroundImageFix" result="shape"/>
<feGaussianBlur stdDeviation="0.5" result="effect1_foregroundBlur_3_77"/>
</filter>
<filter id="filter6_f_3_77" x="159.037" y="9.69306" width="94.9267" height="44.6139" filterUnits="userSpaceOnUse" color-interpolation-filters="sRGB">
<feFlood flood-opacity="0" result="BackgroundImageFix"/>
<feBlend mode="normal" in="SourceGraphic" in2="BackgroundImageFix" result="shape"/>
<feGaussianBlur stdDeviation="0.5" result="effect1_foregroundBlur_3_77"/>
</filter>
<filter id="filter7_f_3_77" x="82.6756" y="11.0265" width="75.6488" height="17.947" filterUnits="userSpaceOnUse" color-interpolation-filters="sRGB">
<feFlood flood-opacity="0" result="BackgroundImageFix"/>
<feBlend mode="normal" in="SourceGraphic" in2="BackgroundImageFix" result="shape"/>
<feGaussianBlur stdDeviation="0.5" result="effect1_foregroundBlur_3_77"/>
</filter>
<filter id="filter8_f_3_77" x="56.5153" y="40.7239" width="14.9694" height="74.5522" filterUnits="userSpaceOnUse" color-interpolation-filters="sRGB">
<feFlood flood-opacity="0" result="BackgroundImageFix"/>
<feBlend mode="normal" in="SourceGraphic" in2="BackgroundImageFix" result="shape"/>
<feGaussianBlur stdDeviation="0.5" result="effect1_foregroundBlur_3_77"/>
</filter>
<filter id="filter9_f_3_77" x="12.1254" y="111.346" width="50.7492" height="56.3081" filterUnits="userSpaceOnUse" color-interpolation-filters="sRGB">
<feFlood flood-opacity="0" result="BackgroundImageFix"/>
<feBlend mode="normal" in="SourceGraphic" in2="BackgroundImageFix" result="shape"/>
<feGaussianBlur stdDeviation="0.5" result="effect1_foregroundBlur_3_77"/>
</filter>
<filter id="filter10_b_3_77" x="29.3817" y="55.1818" width="159.325" height="191.818" filterUnits="userSpaceOnUse" color-interpolation-filters="sRGB">
<feFlood flood-opacity="0" result="BackgroundImageFix"/>
<feGaussianBlur in="BackgroundImageFix" stdDeviation="2.5"/>
<feComposite in2="SourceAlpha" operator="in" result="effect1_backgroundBlur_3_77"/>
<feBlend mode="normal" in="SourceGraphic" in2="effect1_backgroundBlur_3_77" result="shape"/>
</filter>
<filter id="filter11_f_3_77" x="242" y="41" width="35" height="35" filterUnits="userSpaceOnUse" color-interpolation-filters="sRGB">
<feFlood flood-opacity="0" result="BackgroundImageFix"/>
<feBlend mode="normal" in="SourceGraphic" in2="BackgroundImageFix" result="shape"/>
<feGaussianBlur stdDeviation="0.5" result="effect1_foregroundBlur_3_77"/>
</filter>
<filter id="filter12_f_3_77" x="148" y="0" width="27" height="27" filterUnits="userSpaceOnUse" color-interpolation-filters="sRGB">
<feFlood flood-opacity="0" result="BackgroundImageFix"/>
<feBlend mode="normal" in="SourceGraphic" in2="BackgroundImageFix" result="shape"/>
<feGaussianBlur stdDeviation="0.5" result="effect1_foregroundBlur_3_77"/>
</filter>
<filter id="filter13_f_3_77" x="48" y="12" width="40" height="41" filterUnits="userSpaceOnUse" color-interpolation-filters="sRGB">
<feFlood flood-opacity="0" result="BackgroundImageFix"/>
<feBlend mode="normal" in="SourceGraphic" in2="BackgroundImageFix" result="shape"/>
<feGaussianBlur stdDeviation="0.5" result="effect1_foregroundBlur_3_77"/>
</filter>
<filter id="filter14_f_3_77" x="133" y="175" width="17" height="17" filterUnits="userSpaceOnUse" color-interpolation-filters="sRGB">
<feFlood flood-opacity="0" result="BackgroundImageFix"/>
<feBlend mode="normal" in="SourceGraphic" in2="BackgroundImageFix" result="shape"/>
<feGaussianBlur stdDeviation="0.5" result="effect1_foregroundBlur_3_77"/>
</filter>
<filter id="filter15_f_3_77" x="126" y="241" width="30" height="31" filterUnits="userSpaceOnUse" color-interpolation-filters="sRGB">
<feFlood flood-opacity="0" result="BackgroundImageFix"/>
<feBlend mode="normal" in="SourceGraphic" in2="BackgroundImageFix" result="shape"/>
<feGaussianBlur stdDeviation="0.5" result="effect1_foregroundBlur_3_77"/>
</filter>
<filter id="filter16_f_3_77" x="52" y="105" width="17" height="17" filterUnits="userSpaceOnUse" color-interpolation-filters="sRGB">
<feFlood flood-opacity="0" result="BackgroundImageFix"/>
<feBlend mode="normal" in="SourceGraphic" in2="BackgroundImageFix" result="shape"/>
<feGaussianBlur stdDeviation="0.5" result="effect1_foregroundBlur_3_77"/>
</filter>
<filter id="filter17_f_3_77" x="203" y="112" width="42" height="42" filterUnits="userSpaceOnUse" color-interpolation-filters="sRGB">
<feFlood flood-opacity="0" result="BackgroundImageFix"/>
<feBlend mode="normal" in="SourceGraphic" in2="BackgroundImageFix" result="shape"/>
<feGaussianBlur stdDeviation="0.5" result="effect1_foregroundBlur_3_77"/>
</filter>
<filter id="filter18_f_3_77" x="231" y="167" width="24" height="25" filterUnits="userSpaceOnUse" color-interpolation-filters="sRGB">
<feFlood flood-opacity="0" result="BackgroundImageFix"/>
<feBlend mode="normal" in="SourceGraphic" in2="BackgroundImageFix" result="shape"/>
<feGaussianBlur stdDeviation="0.5" result="effect1_foregroundBlur_3_77"/>
</filter>
<filter id="filter19_f_3_77" x="19" y="249" width="17" height="17" filterUnits="userSpaceOnUse" color-interpolation-filters="sRGB">
<feFlood flood-opacity="0" result="BackgroundImageFix"/>
<feBlend mode="normal" in="SourceGraphic" in2="BackgroundImageFix" result="shape"/>
<feGaussianBlur stdDeviation="0.5" result="effect1_foregroundBlur_3_77"/>
</filter>
<filter id="filter20_f_3_77" x="0" y="150" width="30" height="31" filterUnits="userSpaceOnUse" color-interpolation-filters="sRGB">
<feFlood flood-opacity="0" result="BackgroundImageFix"/>
<feBlend mode="normal" in="SourceGraphic" in2="BackgroundImageFix" result="shape"/>
<feGaussianBlur stdDeviation="0.5" result="effect1_foregroundBlur_3_77"/>
</filter>
<filter id="filter21_b_3_77" x="142.222" y="155.43" width="290.371" height="95.7422" filterUnits="userSpaceOnUse" color-interpolation-filters="sRGB">
<feFlood flood-opacity="0" result="BackgroundImageFix"/>
<feGaussianBlur in="BackgroundImageFix" stdDeviation="2.5"/>
<feComposite in2="SourceAlpha" operator="in" result="effect1_backgroundBlur_3_77"/>
<feBlend mode="normal" in="SourceGraphic" in2="effect1_backgroundBlur_3_77" result="shape"/>
</filter>
</defs>
</svg>
